<?xml version="1.0" encoding="UTF-8"?>
<svg width="225" height="269" viewBox="0 0 225 269" fill="none" xmlns="http://www.w3.org/2000/svg" role="img" aria-label="Logo transparent">
  <path d="M 114.00 239.50 L 110.00 239.50 L 107.00 236.50 L 104.00 235.50 L 102.00 233.50 L 101.00 233.50 L 99.50 232.00 L 99.50 231.00 L 98.50 230.00 L 98.50 217.00 L 100.00 215.50 L 102.00 215.50 L 104.00 217.50 L 107.00 218.50 L 109.00 220.50 L 110.00 220.50 L 111.00 221.50 L 113.00 221.50 L 114.00 220.50 L 115.00 220.50 L 116.00 219.50 L 117.00 219.50 L 120.00 217.50 L 121.00 217.50 L 123.00 215.50 L 124.00 215.50 L 127.00 213.50 L 128.00 213.50 L 130.00 211.50 L 131.00 211.50 L 132.00 210.50 L 135.00 209.50 L 137.00 207.50 L 140.00 206.50 L 142.00 204.50 L 143.00 204.50 L 148.00 201.50 L 149.00 201.50 L 151.00 199.50 L 152.00 199.50 L 153.00 198.50 L 154.00 198.50 L 156.00 196.50 L 157.00 196.50 L 160.00 194.50 L 161.00 194.50 L 163.00 192.50 L 166.00 191.50 L 168.00 189.50 L 169.00 189.50 L 170.00 188.50 L 173.00 187.50 L 175.00 185.50 L 178.00 184.50 L 180.00 182.50 L 181.00 182.50 L 184.00 180.50 L 185.00 180.50 L 187.50 178.00 L 187.50 92.00 L 185.00 89.50 L 184.00 89.50 L 182.00 87.50 L 179.00 86.50 L 178.00 85.50 L 176.00 85.50 L 175.50 86.00 L 175.50 137.00 L 174.00 138.50 L 173.00 138.50 L 172.00 139.50 L 169.00 140.50 L 167.00 142.50 L 164.00 143.50 L 162.00 145.50 L 161.00 145.50 L 160.00 146.50 L 157.00 147.50 L 155.00 149.50 L 152.00 150.50 L 150.00 152.50 L 149.00 152.50 L 148.00 153.50 L 145.00 154.50 L 143.00 156.50 L 142.00 156.50 L 141.00 157.50 L 140.00 157.50 L 139.00 158.50 L 136.00 159.50 L 134.00 161.50 L 131.00 162.50 L 129.00 164.50 L 128.00 164.50 L 125.00 166.50 L 124.00 166.50 L 122.00 168.50 L 119.00 169.50 L 117.00 171.50 L 116.00 171.50 L 115.00 172.50 L 112.00 173.50 L 110.00 175.50 L 107.00 176.50 L 105.00 178.50 L 104.00 178.50 L 103.00 179.50 L 100.00 180.50 L 98.00 182.50 L 97.00 182.50 L 95.50 184.00 L 95.50 228.00 L 94.00 229.50 L 93.00 228.50 L 92.00 228.50 L 90.00 226.50 L 87.00 225.50 L 86.00 224.50 L 83.00 223.50 L 81.00 221.50 L 78.00 220.50 L 76.00 218.50 L 75.00 218.50 L 74.00 217.50 L 71.00 216.50 L 69.00 214.50 L 68.00 214.50 L 67.00 213.50 L 64.00 212.50 L 62.00 210.50 L 59.00 209.50 L 57.00 207.50 L 56.00 207.50 L 55.00 206.50 L 52.00 205.50 L 50.00 203.50 L 47.00 202.50 L 45.00 200.50 L 44.00 200.50 L 43.00 199.50 L 42.00 199.50 L 41.00 198.50 L 38.00 197.50 L 33.00 193.50 L 32.00 193.50 L 27.00 190.50 L 26.00 190.50 L 24.00 188.50 L 22.50 188.00 L 22.50 186.00 L 21.50 185.00 L 22.50 184.00 L 22.50 86.00 L 21.50 85.00 L 22.50 82.00 L 24.00 80.50 L 27.00 79.50 L 29.00 77.50 L 32.00 76.50 L 33.00 75.50 L 36.00 74.50 L 38.00 72.50 L 39.00 72.50 L 40.00 71.50 L 43.00 70.50 L 45.00 68.50 L 48.00 67.50 L 50.00 65.50 L 53.00 64.50 L 55.00 62.50 L 58.00 61.50 L 59.00 60.50 L 60.00 60.50 L 62.00 58.50 L 63.00 58.50 L 66.00 56.50 L 67.00 56.50 L 69.00 54.50 L 72.00 53.50 L 74.00 51.50 L 75.00 51.50 L 80.00 48.50 L 81.00 48.50 L 83.00 46.50 L 86.00 45.50 L 88.00 43.50 L 89.00 43.50 L 90.00 42.50 L 93.00 41.50 L 95.00 39.50 L 98.00 38.50 L 100.00 36.50 L 101.00 36.50 L 102.00 35.50 L 103.00 35.50 L 106.00 33.50 L 107.00 33.50 L 110.00 30.50 L 111.00 30.50 L 112.00 29.50 L 113.00 29.50 L 118.00 33.50 L 121.00 34.50 L 123.00 36.50 L 126.00 37.50 L 127.00 38.50 L 128.00 38.50 L 130.00 40.50 L 133.00 41.50 L 135.00 43.50 L 136.00 43.50 L 137.00 44.50 L 138.00 44.50 L 141.00 46.50 L 142.00 46.50 L 144.00 48.50 L 147.00 49.50 L 149.00 51.50 L 150.00 51.50 L 151.00 52.50 L 154.00 53.50 L 156.00 55.50 L 157.00 55.50 L 158.00 56.50 L 161.00 57.50 L 163.00 59.50 L 166.00 60.50 L 168.00 62.50 L 171.00 63.50 L 173.00 65.50 L 176.00 66.50 L 177.00 67.50 L 178.00 67.50 L 180.00 69.50 L 183.00 70.50 L 185.00 72.50 L 187.00 72.50 L 189.00 74.50 L 192.00 75.50 L 194.00 77.50 L 195.00 77.50 L 196.00 78.50 L 199.00 79.50 L 201.00 81.50 L 202.50 82.00 L 202.50 188.00 L 200.00 189.50 L 199.00 189.50 L 198.00 190.50 L 197.00 190.50 L 195.00 192.50 L 194.00 192.50 L 193.00 193.50 L 192.00 193.50 L 189.00 195.50 L 188.00 195.50 L 186.00 197.50 L 183.00 198.50 L 178.00 202.50 L 176.00 202.50 L 174.00 204.50 L 173.00 204.50 L 172.00 205.50 L 171.00 205.50 L 169.00 207.50 L 166.00 208.50 L 164.00 210.50 L 163.00 210.50 L 162.00 211.50 L 159.00 212.50 L 157.00 214.50 L 156.00 214.50 L 155.00 215.50 L 152.00 216.50 L 150.00 218.50 L 147.00 219.50 L 145.00 221.50 L 144.00 221.50 L 139.00 224.50 L 138.00 224.50 L 136.00 226.50 L 133.00 227.50 L 131.00 229.50 L 130.00 229.50 L 129.00 230.50 L 126.00 231.50 L 124.00 233.50 L 121.00 234.50 L 119.00 236.50 L 116.00 237.50 Z
M 79.50 203.00 L 80.50 202.00 L 80.50 120.00 L 82.00 119.50 L 84.00 117.50 L 85.00 117.50 L 86.00 116.50 L 89.00 115.50 L 91.00 113.50 L 92.00 113.50 L 93.00 112.50 L 94.00 112.50 L 95.00 111.50 L 98.00 110.50 L 100.00 108.50 L 103.00 107.50 L 105.00 105.50 L 106.00 105.50 L 107.00 104.50 L 110.00 103.50 L 112.00 101.50 L 115.00 100.50 L 117.00 98.50 L 118.00 98.50 L 119.00 97.50 L 122.00 96.50 L 124.00 94.50 L 125.00 94.50 L 128.00 92.50 L 129.00 92.50 L 131.00 90.50 L 134.00 89.50 L 136.00 87.50 L 137.00 87.50 L 140.00 85.50 L 143.00 84.50 L 148.00 80.50 L 149.00 80.50 L 150.00 79.50 L 151.00 79.50 L 154.00 77.50 L 155.00 77.50 L 157.00 75.50 L 158.50 75.00 L 158.00 73.50 L 156.00 73.50 L 154.00 71.50 L 153.00 71.50 L 151.00 69.50 L 148.00 68.50 L 146.00 66.50 L 145.00 66.50 L 144.00 65.50 L 143.00 65.50 L 140.00 63.50 L 139.00 63.50 L 137.00 61.50 L 134.00 60.50 L 132.00 58.50 L 131.00 58.50 L 130.00 57.50 L 127.00 56.50 L 125.00 54.50 L 123.00 54.50 L 121.00 52.50 L 120.00 52.50 L 118.00 50.50 L 117.00 50.50 L 114.00 48.50 L 111.00 48.50 L 110.00 49.50 L 109.00 49.50 L 106.00 51.50 L 105.00 51.50 L 103.00 53.50 L 100.00 54.50 L 98.00 56.50 L 97.00 56.50 L 96.00 57.50 L 95.00 57.50 L 94.00 58.50 L 91.00 59.50 L 89.00 61.50 L 88.00 61.50 L 87.00 62.50 L 84.00 63.50 L 82.00 65.50 L 79.00 66.50 L 77.00 68.50 L 76.00 68.50 L 75.00 69.50 L 74.00 69.50 L 73.00 70.50 L 70.00 71.50 L 65.00 75.50 L 64.00 75.50 L 63.00 76.50 L 62.00 76.50 L 61.00 77.50 L 58.00 78.50 L 56.00 80.50 L 53.00 81.50 L 51.00 83.50 L 48.00 84.50 L 47.00 85.50 L 46.00 85.50 L 44.00 87.50 L 41.00 88.50 L 39.00 90.50 L 38.00 90.50 L 36.50 93.00 L 36.50 94.00 L 37.50 95.00 L 37.50 175.00 L 36.50 176.00 L 36.50 177.00 L 40.00 180.50 L 41.00 180.50 L 43.00 182.50 L 44.00 182.50 L 47.00 184.50 L 48.00 184.50 L 50.00 186.50 L 53.00 187.50 L 55.00 189.50 L 56.00 189.50 L 59.00 191.50 L 60.00 191.50 L 62.00 193.50 L 65.00 194.50 L 67.00 196.50 L 68.00 196.50 L 73.00 199.50 L 74.00 199.50 L 79.00 203.50 Z
M 46.00 180.50 L 43.00 180.50 L 41.50 178.00 L 41.50 96.00 L 44.00 93.50 L 45.00 93.50 L 46.00 92.50 L 49.00 91.50 L 51.00 89.50 L 52.00 89.50 L 53.00 88.50 L 54.00 88.50 L 56.00 86.50 L 57.00 86.50 L 59.00 84.50 L 62.00 83.50 L 63.00 82.50 L 64.00 82.50 L 66.00 80.50 L 67.00 80.50 L 70.00 78.50 L 73.00 77.50 L 75.00 75.50 L 78.00 74.50 L 80.00 72.50 L 82.00 72.50 L 84.00 70.50 L 87.00 69.50 L 92.00 65.50 L 93.00 65.50 L 94.00 64.50 L 95.00 64.50 L 98.00 62.50 L 99.00 62.50 L 101.00 60.50 L 102.00 60.50 L 103.00 59.50 L 104.00 59.50 L 106.00 57.50 L 107.00 57.50 L 108.00 56.50 L 111.00 55.50 L 113.00 53.50 L 114.00 53.50 L 115.00 52.50 L 118.00 52.50 L 119.50 55.00 L 118.00 56.50 L 117.00 56.50 L 116.00 57.50 L 115.00 57.50 L 114.00 58.50 L 111.00 59.50 L 109.00 61.50 L 108.00 61.50 L 107.00 62.50 L 104.00 63.50 L 102.00 65.50 L 99.00 66.50 L 97.00 68.50 L 96.00 68.50 L 95.00 69.50 L 94.00 69.50 L 93.00 70.50 L 90.00 71.50 L 85.00 75.50 L 84.00 75.50 L 83.00 76.50 L 82.00 76.50 L 79.00 78.50 L 78.00 78.50 L 76.00 80.50 L 73.00 81.50 L 71.00 83.50 L 68.00 84.50 L 67.00 85.50 L 66.00 85.50 L 64.00 87.50 L 61.00 88.50 L 59.00 90.50 L 58.00 90.50 L 57.00 91.50 L 54.00 92.50 L 52.00 94.50 L 49.00 95.50 L 46.50 98.00 L 46.50 180.00 Z
M 52.00 184.50 L 50.00 184.50 L 48.50 182.00 L 48.50 102.00 L 49.50 101.00 L 49.50 100.00 L 51.00 98.50 L 53.00 98.50 L 58.00 94.50 L 59.00 94.50 L 62.00 92.50 L 65.00 91.50 L 67.00 89.50 L 70.00 88.50 L 72.00 86.50 L 73.00 86.50 L 74.00 85.50 L 77.00 84.50 L 79.00 82.50 L 82.00 81.50 L 84.00 79.50 L 85.00 79.50 L 88.00 77.50 L 89.00 77.50 L 91.00 75.50 L 94.00 74.50 L 96.00 72.50 L 98.00 72.50 L 100.00 70.50 L 103.00 69.50 L 105.00 67.50 L 106.00 67.50 L 109.00 65.50 L 110.00 65.50 L 112.00 63.50 L 115.00 62.50 L 117.00 60.50 L 120.00 59.50 L 122.00 57.50 L 125.00 56.50 L 127.50 59.00 L 125.00 61.50 L 124.00 61.50 L 123.00 62.50 L 120.00 63.50 L 118.00 65.50 L 117.00 65.50 L 116.00 66.50 L 115.00 66.50 L 113.00 68.50 L 112.00 68.50 L 109.00 70.50 L 108.00 70.50 L 106.00 72.50 L 103.00 73.50 L 101.00 75.50 L 100.00 75.50 L 99.00 76.50 L 98.00 76.50 L 97.00 77.50 L 94.00 78.50 L 92.00 80.50 L 89.00 81.50 L 87.00 83.50 L 86.00 83.50 L 85.00 84.50 L 82.00 85.50 L 80.00 87.50 L 77.00 88.50 L 75.00 90.50 L 74.00 90.50 L 71.00 92.50 L 70.00 92.50 L 68.00 94.50 L 67.00 94.50 L 62.00 97.50 L 61.00 97.50 L 59.00 99.50 L 56.00 100.50 L 52.50 104.00 L 53.50 105.00 L 53.50 183.00 Z
M 59.00 188.50 L 57.00 188.50 L 55.50 187.00 L 55.50 105.00 L 57.00 103.50 L 58.00 103.50 L 59.00 102.50 L 62.00 101.50 L 64.00 99.50 L 67.00 98.50 L 69.00 96.50 L 70.00 96.50 L 75.00 93.50 L 76.00 93.50 L 81.00 89.50 L 82.00 89.50 L 83.00 88.50 L 86.00 87.50 L 88.00 85.50 L 91.00 84.50 L 93.00 82.50 L 94.00 82.50 L 95.00 81.50 L 96.00 81.50 L 97.00 80.50 L 100.00 79.50 L 102.00 77.50 L 105.00 76.50 L 108.00 74.50 L 109.00 74.50 L 111.00 72.50 L 112.00 72.50 L 114.00 70.50 L 117.00 69.50 L 119.00 67.50 L 121.00 67.50 L 123.00 65.50 L 126.00 64.50 L 128.00 62.50 L 129.00 62.50 L 132.00 60.50 L 133.00 61.50 L 134.00 61.50 L 134.50 62.00 L 134.50 64.00 L 134.00 64.50 L 131.00 65.50 L 129.00 67.50 L 126.00 68.50 L 124.00 70.50 L 123.00 70.50 L 118.00 73.50 L 117.00 73.50 L 115.00 75.50 L 114.00 75.50 L 113.00 76.50 L 112.00 76.50 L 110.00 78.50 L 109.00 78.50 L 106.00 80.50 L 105.00 80.50 L 103.00 82.50 L 102.00 82.50 L 101.00 83.50 L 100.00 83.50 L 98.00 85.50 L 97.00 85.50 L 96.00 86.50 L 93.00 87.50 L 91.00 89.50 L 90.00 89.50 L 89.00 90.50 L 88.00 90.50 L 86.00 92.50 L 85.00 92.50 L 84.00 93.50 L 81.00 94.50 L 79.00 96.50 L 78.00 96.50 L 75.00 98.50 L 72.00 99.50 L 70.00 101.50 L 69.00 101.50 L 68.00 102.50 L 67.00 102.50 L 65.00 104.50 L 62.00 105.50 L 59.50 108.00 L 59.50 188.00 Z
M 66.00 192.50 L 64.00 192.50 L 62.50 191.00 L 62.50 110.00 L 64.00 108.50 L 65.00 108.50 L 67.00 106.50 L 70.00 105.50 L 72.00 103.50 L 73.00 103.50 L 78.00 100.50 L 79.00 100.50 L 84.00 96.50 L 86.00 96.50 L 88.00 94.50 L 89.00 94.50 L 90.00 93.50 L 91.00 93.50 L 93.00 91.50 L 96.00 90.50 L 98.00 88.50 L 99.00 88.50 L 100.00 87.50 L 103.00 86.50 L 105.00 84.50 L 106.00 84.50 L 107.00 83.50 L 108.00 83.50 L 110.00 81.50 L 111.00 81.50 L 114.00 79.50 L 115.00 79.50 L 117.00 77.50 L 118.00 77.50 L 123.00 74.50 L 124.00 74.50 L 126.00 72.50 L 129.00 71.50 L 131.00 69.50 L 132.00 69.50 L 133.00 68.50 L 136.00 67.50 L 138.00 65.50 L 141.00 65.50 L 142.50 67.00 L 139.00 70.50 L 136.00 71.50 L 134.00 73.50 L 132.00 73.50 L 127.00 77.50 L 126.00 77.50 L 121.00 80.50 L 120.00 80.50 L 118.00 82.50 L 115.00 83.50 L 110.00 87.50 L 109.00 87.50 L 108.00 88.50 L 107.00 88.50 L 104.00 90.50 L 103.00 90.50 L 101.00 92.50 L 100.00 92.50 L 97.00 94.50 L 96.00 94.50 L 94.00 96.50 L 91.00 97.50 L 89.00 99.50 L 87.00 99.50 L 85.00 101.50 L 82.00 102.50 L 80.00 104.50 L 77.00 105.50 L 75.00 107.50 L 74.00 107.50 L 71.00 109.50 L 70.00 109.50 L 66.50 113.00 L 66.50 189.00 L 67.50 190.00 L 67.50 191.00 Z
M 73.00 197.50 L 72.00 197.50 L 69.50 195.00 L 69.50 116.00 L 70.50 115.00 L 70.50 114.00 L 72.00 113.50 L 74.00 111.50 L 77.00 110.50 L 79.00 108.50 L 80.00 108.50 L 83.00 106.50 L 84.00 106.50 L 86.00 104.50 L 89.00 103.50 L 91.00 101.50 L 94.00 100.50 L 96.00 98.50 L 98.00 98.50 L 100.00 96.50 L 103.00 95.50 L 105.00 93.50 L 106.00 93.50 L 107.00 92.50 L 110.00 91.50 L 112.00 89.50 L 115.00 88.50 L 117.00 86.50 L 118.00 86.50 L 119.00 85.50 L 122.00 84.50 L 124.00 82.50 L 127.00 81.50 L 129.00 79.50 L 130.00 79.50 L 131.00 78.50 L 134.00 77.50 L 136.00 75.50 L 137.00 75.50 L 142.00 72.50 L 143.00 72.50 L 145.00 70.50 L 146.00 70.50 L 147.00 69.50 L 148.00 70.50 L 149.00 70.50 L 149.50 71.00 L 149.50 73.00 L 148.00 73.50 L 146.00 75.50 L 143.00 76.50 L 141.00 78.50 L 139.00 78.50 L 134.00 82.50 L 133.00 82.50 L 128.00 85.50 L 127.00 85.50 L 125.00 87.50 L 122.00 88.50 L 120.00 90.50 L 119.00 90.50 L 118.00 91.50 L 115.00 92.50 L 113.00 94.50 L 110.00 95.50 L 108.00 97.50 L 107.00 97.50 L 104.00 99.50 L 101.00 100.50 L 99.00 102.50 L 98.00 102.50 L 97.00 103.50 L 94.00 104.50 L 92.00 106.50 L 89.00 107.50 L 84.00 111.50 L 82.00 111.50 L 80.00 113.50 L 77.00 114.50 L 74.50 117.00 L 74.50 196.00 Z
M 97.50 165.00 L 99.00 163.50 L 102.00 162.50 L 104.00 160.50 L 105.00 160.50 L 107.00 158.50 L 109.00 158.50 L 111.00 156.50 L 114.00 155.50 L 116.00 153.50 L 119.00 152.50 L 121.00 150.50 L 122.00 150.50 L 125.00 148.50 L 126.00 148.50 L 128.00 146.50 L 129.00 146.50 L 130.00 145.50 L 133.00 144.50 L 135.00 142.50 L 138.00 141.50 L 140.00 139.50 L 141.00 139.50 L 142.00 138.50 L 145.00 137.50 L 147.00 135.50 L 148.00 135.50 L 149.00 134.50 L 152.00 133.50 L 154.00 131.50 L 155.00 131.50 L 158.00 129.50 L 159.00 129.50 L 160.50 128.00 L 160.50 93.00 L 160.00 92.50 L 158.00 92.50 L 156.00 94.50 L 155.00 94.50 L 154.00 95.50 L 153.00 95.50 L 151.00 97.50 L 150.00 97.50 L 149.00 98.50 L 146.00 99.50 L 144.00 101.50 L 141.00 102.50 L 139.00 104.50 L 138.00 104.50 L 135.00 106.50 L 134.00 106.50 L 132.00 108.50 L 129.00 109.50 L 127.00 111.50 L 126.00 111.50 L 125.00 112.50 L 124.00 112.50 L 123.00 113.50 L 120.00 114.50 L 118.00 116.50 L 115.00 117.50 L 113.00 119.50 L 112.00 119.50 L 109.00 121.50 L 108.00 121.50 L 106.00 123.50 L 103.00 124.50 L 101.00 126.50 L 98.00 127.50 L 95.50 130.00 L 95.50 165.00 L 96.00 165.50 Z" fill="#FFAB00" fill-rule="evenodd" clip-rule="evenodd"/>
</svg>
